HIERARCHY
ROOT joint_0
{
	OFFSET 0.000000 0.000000 0.000000
	CHANNELS 6 Xposition Yposition Zposition Zrotation Yrotation Xrotation 
	JOINT joint_1
	{
		OFFSET 1.363060 -1.794630 0.839290
		CHANNELS 3 Zrotation Yrotation Xrotation
		JOINT joint_2
		{
			OFFSET 2.448110 -6.726130 0.000000
			CHANNELS 3 Zrotation Yrotation Xrotation
			JOINT joint_3
			{
				OFFSET 2.562200 -7.039590 0.000000
				CHANNELS 3 Zrotation Yrotation Xrotation
				JOINT joint_4
				{
					OFFSET 0.157640 -0.433110 2.322550
					CHANNELS 3 Zrotation Yrotation Xrotation
					End Site
					{
						OFFSET 0.000000 0.000000 0.000000
					}
				}
			}
		}
	}
	JOINT joint_5
	{
		OFFSET -1.305520 -1.794630 0.839290
		CHANNELS 3 Zrotation Yrotation Xrotation
		JOINT joint_6
		{
			OFFSET -2.542530 -6.985550 0.000000
			CHANNELS 3 Zrotation Yrotation Xrotation
			JOINT joint_7
			{
				OFFSET -2.568260 -7.056230 0.000000
				CHANNELS 3 Zrotation Yrotation Xrotation
				JOINT joint_8
				{
					OFFSET -0.164730 -0.452590 2.363150
					CHANNELS 3 Zrotation Yrotation Xrotation
					End Site
					{
						OFFSET 0.000000 0.000000 0.000000
					}
				}
			}
		}
	}
	JOINT joint_9
	{
		OFFSET 0.028270 2.035590 -0.193380
		CHANNELS 3 Zrotation Yrotation Xrotation
		JOINT joint_10
		{
			OFFSET 0.056720 2.048850 -0.042750
			CHANNELS 3 Zrotation Yrotation Xrotation
			JOINT joint_11
			{
				OFFSET -0.054170 1.746240 0.172020
				CHANNELS 3 Zrotation Yrotation Xrotation
				JOINT joint_12
				{
					OFFSET 0.104070 1.761360 -0.123970
					CHANNELS 3 Zrotation Yrotation Xrotation
					End Site
					{
						OFFSET 0.000000 0.000000 0.000000
					}
				}
			}
			JOINT joint_13
			{
				OFFSET 3.362410 1.200890 -0.311210
				CHANNELS 3 Zrotation Yrotation Xrotation
				JOINT joint_14
				{
					OFFSET 4.983000 -0.000000 -0.000000
					CHANNELS 3 Zrotation Yrotation Xrotation
					JOINT joint_15
					{
						OFFSET 3.483560 -0.000000 -0.000000
						CHANNELS 3 Zrotation Yrotation Xrotation
						JOINT joint_16
						{
							OFFSET 0.000000 0.000000 0.000000
							CHANNELS 3 Zrotation Yrotation Xrotation
							End Site
							{
								OFFSET 0.000000 0.000000 0.000000
							}
						}
					}
				}
			}
			JOINT joint_17
			{
				OFFSET -3.136600 1.374050 -0.404650
				CHANNELS 3 Zrotation Yrotation Xrotation
				JOINT joint_18
				{
					OFFSET -5.241900 -0.000000 -0.000000
					CHANNELS 3 Zrotation Yrotation Xrotation
					JOINT joint_19
					{
						OFFSET -3.444170 -0.000000 -0.000000
						CHANNELS 3 Zrotation Yrotation Xrotation
						JOINT joint_20
						{
							OFFSET 0.000000 0.000000 0.000000
							CHANNELS 3 Zrotation Yrotation Xrotation
							End Site
							{
								OFFSET 0.000000 0.000000 0.000000
							}
						}
					}
				}
			}
		}
	}
}
MOTION
Frames: 18
Frame Time: 0.031667
0.383414 16.863363 -1.810240 -1.405944 0.763194 0.967095 -18.967090 5.098439 -1.759036 1.694356 -0.652581 6.561046 -0.513311 1.979531 -8.005886 0.227459 -2.965946 -8.323025 23.363473 -1.370761 4.087371 -3.431380 -0.371971 7.844908 1.027536 -2.868961 -12.086153 -0.533345 4.296071 -8.707842 3.725141 1.819954 -9.277521 0.315632 -0.228223 13.613954 4.622156 0.449672 16.502386 1.305425 0.290261 11.735068 -36.373760 -5.077131 11.758459 17.552086 -24.162257 -19.849690 8.783157 3.447512 0.979205 -6.774162 0.012970 0.032844 33.843839 4.883606 0.277929 -24.485159 22.975269 -26.835174 -10.600613 -10.580963 -0.156558 6.851276 -0.002824 0.005845 
0.383318 16.859610 -1.817252 -1.379972 0.747692 0.969901 -23.834104 7.016043 -1.834095 1.729337 -6.146531 4.090878 -0.717166 0.159523 -7.400105 0.030022 1.139905 3.093041 25.476124 -3.587170 2.500244 -5.092577 0.347693 5.107445 0.589499 -0.929141 -12.526167 -0.453854 2.816336 -7.055988 2.722103 0.848523 -6.472006 0.495271 -0.649561 12.572491 4.166608 0.005159 17.147491 1.515036 0.014686 11.247023 -30.168360 -5.738521 8.361342 10.945009 -18.413582 -20.578966 11.892525 3.117137 1.519982 -6.697552 0.004641 0.028367 27.041287 5.430105 0.496141 -22.836742 24.586071 -29.269342 -9.280406 -8.819846 -1.036746 6.780543 -0.010533 -0.002500 
0.359751 16.856756 -1.922252 -1.278687 2.231196 1.264987 -20.921259 5.494706 -2.383780 0.940381 -2.470224 2.368016 -0.900791 0.208475 -6.647166 0.050953 -1.471622 -4.096217 24.288991 -2.899312 3.286841 -5.685418 2.199841 4.965273 0.435536 -0.464148 -14.299032 -0.302701 -2.110822 6.193468 3.447381 0.893404 -8.783068 0.908192 -0.469616 14.188800 3.734136 -0.842196 15.081986 2.448675 -0.400062 11.024382 -25.706765 -5.163689 5.640418 8.595055 -16.948673 -23.064421 8.878905 2.416547 1.230717 -6.679494 0.003730 0.026318 22.793723 4.384468 -0.646932 -20.618200 21.100542 -28.818631 -9.536995 -7.064116 -0.009040 6.758218 -0.013563 -0.006685 
0.356616 16.846096 -1.948889 -0.875224 1.924792 0.723241 -17.113752 4.561162 -1.350462 0.388613 -1.572444 4.401867 -0.840198 -3.891116 -5.003339 0.049717 -1.474995 -4.108280 26.389940 -4.189340 2.310389 -8.240920 1.667516 6.316897 1.457890 -0.042613 -15.438461 -0.764837 2.024956 -6.038209 4.883055 0.687870 -11.338313 0.096513 -1.627183 12.012509 3.506388 -0.811282 13.110621 3.240135 -0.607929 10.968507 -20.384103 -5.131317 4.542298 9.317966 -15.612270 -22.742891 9.395505 3.102393 1.439771 -6.686912 0.001219 0.019963 22.376007 4.232858 -1.137649 -21.375949 21.037148 -28.091162 -11.625386 -8.934099 0.062375 6.748416 -0.017947 -0.012295 
0.352688 16.855104 -1.909324 -1.206381 1.764283 0.913657 -17.564725 5.249763 -1.990369 -0.057792 -0.939093 1.923986 -1.416354 -5.106167 -4.884543 0.078173 -1.861145 -5.198458 27.752811 -4.431385 2.491571 -9.226381 2.456674 4.630880 1.119307 -1.195671 -14.925066 -0.435875 1.528039 -4.612746 3.251397 -0.404390 -7.571452 0.416191 -1.436216 13.071745 4.867947 -0.825533 14.263746 4.020752 -0.910502 10.481097 -20.274975 -4.411898 4.501744 10.113174 -13.038454 -21.323850 6.851669 2.644853 1.355444 -6.686046 0.001255 0.019704 19.749451 3.757007 -0.762563 -21.593063 19.101651 -31.417010 -8.549019 -7.091567 0.149057 6.749943 -0.019277 -0.012323 
0.353326 16.855556 -1.907733 -1.240121 1.724975 0.923689 -19.961901 5.665662 -2.127155 -0.739116 -1.790648 3.685169 -3.657893 -4.216591 -6.698994 0.068864 -1.730307 -4.849680 29.211206 -3.897728 1.957266 -9.078225 4.097912 4.551389 1.557856 -2.344663 -14.244923 -0.071101 -1.378496 3.744743 2.675062 -0.522892 -7.490400 -0.600769 -2.725453 15.630609 4.005472 -1.093565 11.582764 4.594512 -1.251990 9.959296 -20.727103 -5.829246 3.921000 11.084922 -13.419010 -23.216654 5.269469 3.537684 -0.922923 -6.678066 0.002559 0.020089 17.044813 3.142412 -0.737254 -19.493412 18.139040 -29.563451 -9.889546 -7.968933 0.578813 6.761095 -0.021683 -0.013051 
0.353497 16.856457 -1.906577 -1.280150 1.729442 0.936999 -19.851101 6.389255 -2.319888 -1.729041 -1.603128 4.828145 -3.341746 -2.537780 -6.623981 0.026043 -1.123656 -3.229142 31.197730 -2.537562 3.133553 -4.983446 4.162889 1.947677 -0.329707 0.001309 -13.744568 -0.106880 -1.445175 3.872142 2.505816 -0.400240 -8.777259 -0.080604 -1.449658 13.550062 4.403053 -1.498304 13.243388 5.105469 -1.312963 9.539941 -17.964477 -4.550523 2.934886 9.459977 -11.013413 -21.463991 6.796778 3.984960 -1.283547 -6.685302 0.002357 0.020088 17.205658 2.884339 0.457210 -20.113771 15.384509 -32.367990 -12.207030 -9.094907 1.338608 6.768927 -0.024580 -0.015754 
0.354524 16.854355 -1.908769 -1.262170 1.675628 0.897137 -22.751782 5.347140 -1.554467 -1.954566 -1.537842 4.415144 -3.821906 -2.002720 -6.934779 0.041495 -1.358247 -3.774494 33.013264 -3.086748 1.867001 -7.713078 4.630157 5.587694 -0.858535 3.448567 -13.717958 -0.082402 -1.445623 3.897531 2.977008 0.039289 -9.356927 -0.991028 -1.666033 13.428984 5.371954 -1.489831 13.940119 5.314743 -1.521560 8.955676 -20.159400 -5.623145 2.387275 10.032034 -11.164210 -24.081405 7.655200 4.711405 -0.850480 -6.742831 0.002917 0.020707 19.669240 4.851713 -0.892793 -21.417356 17.430490 -35.293860 -10.746846 -7.856076 0.992456 6.821845 -0.023734 -0.014694 
0.355215 16.853754 -1.910480 -1.258266 1.650171 0.888190 -21.288589 6.800775 0.082730 -2.828240 -2.175451 4.867733 -3.943718 -2.977022 -8.496321 0.031963 -1.239384 -3.444424 33.878144 -1.885659 0.665064 -8.954892 1.425645 7.057933 0.049242 3.322908 -12.524061 -0.117575 -1.310996 3.250238 4.089459 -1.682458 -11.090689 -1.368355 -2.276454 14.859585 6.090133 -1.413373 14.806913 5.246960 -1.477926 8.893131 -21.256074 -6.323425 3.059709 9.052391 -12.504032 -25.381779 5.079896 2.884630 -0.200044 -6.796711 -0.000597 0.016535 23.294158 4.847920 -1.424682 -22.009917 19.355928 -36.142777 -10.275804 -8.029266 0.865210 6.889530 -0.024471 -0.017058 
0.354847 16.854204 -1.912898 -1.277922 1.673580 0.855423 -22.088798 6.012580 1.517599 -2.535197 -1.845857 3.732370 -4.080195 -1.771524 -8.805814 0.014113 -0.946019 -2.640314 34.039145 -2.673907 1.279509 -9.984791 1.134244 -1.080038 -0.994276 4.073659 -13.702680 -0.041649 -1.125286 3.035068 2.698713 -2.654221 -8.355097 -1.419494 -2.413741 13.777523 5.099391 -1.565569 13.963700 5.100311 -1.354801 8.567452 -21.829682 -6.973916 2.976706 9.535869 -13.328034 -26.939532 5.446720 2.913239 -0.345169 -6.907468 -0.004586 0.015322 25.585573 7.270837 -0.595768 -25.582142 21.859531 -40.459889 -9.190128 -7.878444 0.208538 6.995975 -0.025497 -0.017604 
0.355467 16.859909 -1.895105 -1.494062 1.709578 1.028775 -22.893817 6.382052 2.072768 -2.866196 -1.685580 5.684220 -3.555516 -2.567348 -10.553369 0.018432 -0.989891 -2.751550 34.383374 -2.196773 1.649363 -12.097529 -0.709372 -5.598321 -2.441634 4.614834 -15.668603 -0.240336 -1.776787 4.095017 2.530946 -4.346358 -9.338762 -1.390185 -3.345317 14.260399 4.599251 -1.831786 13.941245 5.302495 -1.446895 8.824977 -24.330421 -9.242681 3.016590 10.916338 -14.350363 -27.712889 4.220695 2.228321 0.380965 -6.870355 -0.003880 0.014648 27.491855 7.790974 -0.941045 -24.638814 21.088367 -41.093795 -10.860850 -9.195131 0.516389 6.966073 -0.024720 -0.016815 
0.355698 16.858559 -1.896486 -1.490068 1.658553 0.979278 -19.941107 5.631932 0.265736 -2.093923 -0.936845 6.915623 -1.341266 -6.337035 -7.369287 0.000378 -0.249126 -0.694873 35.985738 -3.947752 1.910254 -9.200394 0.071154 -6.573600 -1.877521 1.728917 -13.408283 -0.065876 0.987560 -2.899211 2.746075 -4.672727 -8.613583 -1.054459 -4.411012 13.495023 5.226840 -2.549889 13.625834 5.305646 -1.256696 8.752156 -23.797981 -9.053103 3.409053 12.955231 -14.411596 -29.154325 5.576443 2.686811 0.795591 -6.912379 -0.001893 0.014446 28.877118 8.036399 1.454832 -26.187735 20.621491 -40.406836 -11.392373 -8.692140 0.105267 7.000292 -0.022595 -0.014537 
0.356209 16.859009 -1.897598 -1.467705 1.612175 0.967268 -20.907742 2.985707 -1.888075 -0.985395 -1.094788 6.334317 -0.148726 -6.055135 -4.671147 0.006552 -0.535150 -1.495130 31.999455 -2.422220 3.012172 -13.329739 -4.458387 -5.971590 -0.535304 -2.058855 -12.255387 -0.035918 0.569967 -1.634743 2.193889 -3.584816 -9.165275 0.918939 -3.565693 10.113911 3.332788 -0.395133 9.263413 5.197082 -1.218731 9.053233 -22.841857 -7.383649 3.909801 14.447331 -15.537275 -27.997906 4.026225 2.577947 1.443254 -6.948996 0.007125 0.020753 28.293617 8.087264 -0.254911 -24.871576 21.649198 -43.288507 -10.311697 -8.648117 -0.068827 7.040725 -0.015082 -0.003870 
0.356011 16.859159 -1.899114 -1.498228 1.643050 0.943425 -21.769986 3.492039 -4.378294 -3.705092 -2.077957 9.675887 -1.661231 -5.812040 -7.399225 0.071363 -1.670243 -4.730413 30.132433 0.086146 -0.234082 -14.035444 1.934201 -8.158348 0.965418 -3.979152 -11.593866 -0.001728 -0.386991 1.059456 1.447654 -1.164151 -8.820089 -1.792954 -0.341163 15.938459 4.859841 -1.751124 10.608606 7.009195 -2.473448 11.836235 -22.122580 -4.946994 4.418715 13.040401 -16.105116 -30.441851 5.487981 4.123867 -0.108605 -7.016950 0.013942 0.034475 22.654644 6.449553 0.213179 -21.878852 18.387910 -38.838898 -7.851828 -6.289159 0.376913 7.116123 -0.008523 0.009050 
0.357096 16.857958 -1.897973 -1.507732 1.614423 0.943045 -28.512496 4.426559 -7.981341 -3.325175 -2.037775 8.615890 -7.438215 -3.237561 -5.984297 0.049009 -1.379233 -3.884166 35.403032 2.187650 -5.554709 -9.020427 -9.016584 0.376359 -1.979780 -0.308606 -13.345726 -0.004138 -0.335654 0.924533 1.509294 0.533200 -9.459769 0.437847 -1.495482 8.679964 3.416296 -1.466661 9.493240 7.822216 -3.270239 14.112931 -21.369086 -5.251617 5.602481 19.439684 -17.656581 -31.571794 2.686288 1.349956 -0.790868 -7.032025 0.015006 0.035029 25.390995 8.616535 -2.570379 -23.570554 15.101384 -42.888115 -12.825671 -12.080043 0.467772 7.140408 -0.006341 0.012061 
0.357464 16.858408 -1.900766 -1.489286 1.570883 0.920987 -21.453800 2.710954 -5.400785 -3.332018 -0.569524 7.290579 -5.335415 -9.409341 -8.596177 0.003013 -0.318175 -0.887601 30.965123 1.351784 -8.502238 -6.267746 -3.766856 7.440230 -0.732252 -0.228670 -11.074433 -0.099189 -1.291764 3.699723 2.872345 0.547122 -12.692937 -0.003020 -0.053755 9.571588 3.155966 -2.102681 11.184117 7.415514 -4.079031 14.525307 -19.664831 -4.834697 5.043061 17.273490 -14.774980 -31.100821 2.548089 1.304343 -0.735546 -7.009056 0.016832 0.037735 27.417993 9.907544 -4.052844 -25.741938 15.748838 -46.463669 -11.720057 -9.370780 0.051874 7.121883 -0.007568 0.010106 
0.357580 16.857958 -1.901502 -1.507811 1.578599 0.911483 -18.517406 2.876498 -6.200997 -1.084564 -4.522099 14.416015 -0.102016 -5.140222 -6.039039 0.133740 -0.664981 -2.922263 33.605051 1.393005 -6.354209 -8.637380 -8.571681 11.974671 -0.747550 0.154292 -9.156510 -0.084850 -1.647165 4.670368 1.857599 1.446786 -11.827084 0.384936 -0.983562 13.326817 6.556221 -5.065235 17.143906 7.775711 -6.402687 16.197587 -14.501553 -4.000869 2.530882 14.482324 -16.546389 -33.459835 2.797163 2.264491 -0.899096 -7.017741 0.023331 0.040753 26.431352 13.716283 -2.037819 -25.567094 15.634677 -47.062031 -13.737715 -10.868326 -0.945468 7.119103 -0.004247 0.013981 
0.358276 16.858109 -1.902733 -1.485188 1.556383 0.880785 -18.952531 1.442829 -6.714865 -0.163992 0.106642 11.429109 -2.466871 -3.582140 -6.350737 0.070148 -1.578277 -4.388161 35.887635 0.165923 -7.534060 -14.227140 -7.029121 8.648566 0.930677 -3.094723 -11.824192 -0.094905 -1.873288 5.217020 0.921350 0.552611 -5.078118 -0.032666 -1.247343 9.784792 3.042528 -3.288513 8.869052 6.066649 -6.450757 14.199375 -16.916398 -7.811763 2.934472 17.015131 -16.311606 -29.476837 0.378704 0.322329 -0.172852 -7.003006 0.020484 0.035164 21.983314 12.711877 -5.547033 -24.671617 14.690118 -45.722648 -12.211025 -10.841984 -1.614850 7.077733 -0.006690 0.007250 
